<svg width="1314px" height="378px" viewBox="0 0 1314 378" version="1.1" xmlns="http://www.w3.org/2000/svg" xmlns:xlink="http://www.w3.org/1999/xlink">
    <g id="Page-1" stroke="none" stroke-width="1" fill="none" fill-rule="evenodd">
        <g id="Winnipeg-Matters-website-mockup" stroke="#F4EA51">
            <g id="Bridge" transform="translate(-126.000000, -195.000000)">
                <path d="M12,473.555357 L477.198316,96 L891,473.555357 M848.665224,473.555357 L477.189669,132.342227 L71.4727512,473.555357 M121.883647,468.091157 L472.828367,162.369958 L793.883647,477.369958 M185.377164,473.555357 L477.206963,186.069643 L739.793254,473.555357 M686.373269,464.870093 L477.21561,212.926576 L228.706323,474 M637.985726,473.555357 L475.356546,241.341807 L286.198955,473.555357 M575.495239,473.555357 L477.198316,284.798004 L364.815741,473.555357 M525.084343,473.555357 L477.224256,347.997164 L421.253463,473.555357" id="Stroke-7" stroke-width="2.796"></path>
                <path d="M27.5438811,460.5 L5.98556637,478.5 L889.5,478.5 L889.5,460.5 L27.5438811,460.5 Z" id="Rectangle" stroke-width="3" fill="#F4EA51" fill-rule="nonzero"></path>
                <path d="M890.832133,460.5 L868.283405,478.5 L1792.5,478.5 L1792.5,460.5 L890.832133,460.5 Z" id="Rectangle" stroke-width="3" fill="#F4EA51" fill-rule="nonzero"></path>
                <path d="M432.750741,412.5 L407.484679,460.5 L540.631551,460.5 L517.936184,412.5 L432.750741,412.5 Z" id="Rectangle" stroke-width="3" fill="#F4EA51" fill-rule="nonzero"></path>
                <path d="M475.911994,63.6843552 L463.536999,571.5 L487.465485,571.5 L475.911994,63.6843552 Z" id="Rectangle" stroke-width="3" fill="#F4EA51" fill-rule="nonzero"></path>
            </g>
        </g>
    </g>
</svg>
