<?xml version="1.0" encoding="UTF-8"?>
<svg width="461px" height="323px" viewBox="0 0 461 323" version="1.1" xmlns="http://www.w3.org/2000/svg" xmlns:xlink="http://www.w3.org/1999/xlink">
    <!-- Generator: Sketch 53.2 (72643) - https://sketchapp.com -->
    <title>The List graphic</title>
    <desc>Created with Sketch.</desc>
    <g id="The-List-graphic" stroke="none" stroke-width="1" fill="none" fill-rule="evenodd">
        <g id="noun_List_607258" transform="translate(304.000000, 43.000000)" fill="#000000" fill-rule="nonzero">
            <ellipse id="Oval" cx="14.5" cy="15" rx="14.5" ry="15"></ellipse>
            <ellipse id="Oval" cx="14.5" cy="59" rx="14.5" ry="15"></ellipse>
            <ellipse id="Oval" cx="14.5" cy="103" rx="14.5" ry="15"></ellipse>
            <rect id="Rectangle" x="44" y="92" width="81" height="22"></rect>
            <rect id="Rectangle" x="44" y="48" width="81" height="22"></rect>
            <rect id="Rectangle" x="44" y="4" width="81" height="22"></rect>
        </g>
        <path d="M41.3139648,177.361816 L76.0063477,177.361816 L76.0063477,246.661133 C76.0063477,252.072944 76.8750727,255.676016 78.6125488,257.470459 C80.350025,259.264902 83.7822009,260.162109 88.9091797,260.162109 L90.7036133,260.162109 L90.7036133,294 L81.4750977,294 C68.82855,294 58.9735054,290.311479 51.909668,282.934326 C44.8458306,275.557173 41.3139648,265.317611 41.3139648,252.215332 L41.3139648,177.361816 Z M142.295586,208.807129 L142.295586,294 L110.337578,294 L110.337578,208.807129 L142.295586,208.807129 Z M126.402031,170.782227 C130.73148,170.782227 134.476966,172.306056 137.638603,175.35376 C140.80024,178.401464 142.381035,182.004536 142.381035,186.163086 C142.381035,190.606468 140.885688,194.252264 137.894951,197.100586 C134.904213,199.948907 131.073278,201.373047 126.402031,201.373047 C121.730784,201.373047 117.899849,199.948907 114.909111,197.100586 C111.918373,194.252264 110.423027,190.606468 110.423027,186.163086 C110.423027,182.004536 112.003822,178.401464 115.165459,175.35376 C118.327096,172.306056 122.072582,170.782227 126.402031,170.782227 Z M224.820175,210.003418 L224.820175,243.67041 C220.319827,243.67041 217.229445,244.510652 215.548935,246.191162 C213.868425,247.871672 212.800321,251.189917 212.344589,256.145996 C210.863462,272.609295 204.483318,284.230272 193.203964,291.009277 C187.222489,294.541196 178.734618,296.307129 167.740097,296.307129 L163.296738,296.307129 L163.296738,262.469238 L164.749374,262.469238 C169.876353,262.469238 173.536391,261.401134 175.729599,259.264893 C177.922807,257.128651 179.190291,253.383165 179.532089,248.02832 C179.987821,239.312456 180.79958,233.188657 181.967392,229.656738 C183.135204,226.12482 185.513517,222.621437 189.102402,219.146484 C195.368709,213.051076 204.055959,210.003418 215.164413,210.003418 L224.820175,210.003418 Z M274.019569,177.361816 L274.019569,210.003418 L288.375038,210.003418 L288.375038,243.755859 L274.019569,243.755859 C274.019569,250.534865 275.087674,255.206042 277.223915,257.769531 C279.360156,260.333021 283.27654,261.614746 288.973183,261.614746 L288.973183,295.196289 C287.321156,295.253255 286.096396,295.281738 285.298866,295.281738 C278.06413,295.281738 271.242502,293.601254 264.833778,290.240234 C258.425055,286.879215 253.283912,282.321969 249.410194,276.568359 C244.511081,269.21969 242.061562,259.478576 242.061562,247.344727 L242.061562,177.361816 L274.019569,177.361816 Z" id="List" fill="#FFD900" fill-rule="nonzero"></path>
        <path d="M85.4633789,73.8579102 L85.4633789,157 L50.7709961,157 L50.7709961,73.8579102 L24.1962891,73.8579102 L24.1962891,40.3618164 L111.952637,40.3618164 L111.952637,73.8579102 L85.4633789,73.8579102 Z M154.254264,40.3618164 L154.254264,75.9941406 C159.666075,72.0634569 165.077804,70.0981445 170.489615,70.0981445 C178.692781,70.0981445 185.201098,73.0603545 190.014762,78.9848633 C194.828425,84.9093721 197.235221,92.9130355 197.235221,102.996094 L197.235221,157 L165.277213,157 L165.277213,111.968262 C165.277213,108.32241 164.892695,105.87289 164.123648,104.619629 C163.354602,103.366367 161.859255,102.739746 159.637564,102.739746 C156.048679,102.739746 154.254264,105.388645 154.254264,110.686523 L154.254264,157 L122.296256,157 L122.296256,40.3618164 L154.254264,40.3618164 Z M299.522199,119.573242 L251.072492,119.573242 C250.331929,117.123686 249.961652,114.873545 249.961652,112.822754 C249.961652,109.974432 250.474343,107.183119 251.499738,104.44873 L267.73509,104.44873 C266.595761,98.1254567 263.035413,94.9638672 257.053937,94.9638672 C253.066287,94.9638672 249.819249,96.6585931 247.312727,100.048096 C244.806204,103.437598 243.552961,107.781224 243.552961,113.079102 C243.552961,118.604845 244.763479,123.076643 247.184553,126.494629 C249.605626,129.912615 252.781457,131.621582 256.712141,131.621582 C259.902261,131.621582 262.978402,130.026546 265.940656,126.836426 L284.14134,148.711426 C275.653342,155.376498 266.225539,158.708984 255.857648,158.708984 C243.211101,158.708984 232.587021,154.465049 223.98509,145.977051 C215.383159,137.489053 211.082258,126.978904 211.082258,114.446289 C211.082258,101.970641 215.425883,91.4320092 224.113264,82.8300781 C232.800644,74.2281471 243.467448,69.9272461 256.113996,69.9272461 C268.475712,69.9272461 278.857688,74.1284573 287.260236,82.5310059 C295.662785,90.9335544 299.863996,101.287048 299.863996,113.591797 C299.863996,114.845058 299.750065,116.838854 299.522199,119.573242 Z" id="The" fill="#000000" fill-rule="nonzero"></path>
        <rect id="Rectangle" fill="#000000" x="304" y="173" width="125" height="125"></rect>
        <path d="M334.648926,216.293457 L334.648926,222.445801 L332.649414,222.445801 L332.649414,228 L325.710938,228 L325.710938,213.166016 C325.710938,210.294908 326.494214,208.064705 328.060791,206.475342 C329.627368,204.885978 331.829087,204.091309 334.666016,204.091309 C337.400404,204.091309 339.422682,204.811923 340.73291,206.253174 C342.043138,207.694425 342.698242,209.91893 342.698242,212.926758 L342.698242,228 L335.759766,228 L335.759766,213.388184 C335.759766,212.476721 335.651531,211.844403 335.435059,211.491211 C335.218586,211.138019 334.83122,210.961426 334.272949,210.961426 C333.190587,210.961426 332.649414,211.770337 332.649414,213.388184 L332.649414,216.293457 L334.648926,216.293457 Z M379.868652,204.672363 L379.868652,221.47168 C379.868652,223.568044 379.236334,225.277012 377.97168,226.598633 C376.707025,227.920254 375.072113,228.581055 373.066895,228.581055 C370.651518,228.581055 368.805833,227.481619 367.529785,225.282715 C366.743648,226.467617 365.900558,227.313555 365.000488,227.820557 C364.100419,228.327558 362.98959,228.581055 361.667969,228.581055 C359.571604,228.581055 357.965175,227.920254 356.848633,226.598633 C355.732091,225.277012 355.173828,223.374361 355.173828,220.890625 L355.173828,204.672363 L362.112305,204.672363 L362.112305,219.848145 C362.112305,220.600101 362.172119,221.095702 362.291748,221.334961 C362.411378,221.57422 362.653481,221.693848 363.018066,221.693848 C363.701664,221.693848 364.043457,221.118495 364.043457,219.967773 L364.043457,204.672363 L370.981934,204.672363 L370.981934,219.848145 C370.981934,220.577315 371.044596,221.067219 371.169922,221.317871 C371.295248,221.568523 371.5402,221.693848 371.904785,221.693848 C372.588382,221.693848 372.930176,221.078619 372.930176,219.848145 L372.930176,204.672363 L379.868652,204.672363 Z M383.594238,228 L383.594238,211.183594 C383.594238,209.098622 384.226556,207.395352 385.491211,206.07373 C386.755866,204.752109 388.396474,204.091309 390.413086,204.091309 C392.805676,204.091309 394.645664,205.190744 395.933105,207.389648 C396.719242,206.204747 397.562333,205.358808 398.462402,204.851807 C399.362472,204.344805 400.473301,204.091309 401.794922,204.091309 C403.891287,204.091309 405.497716,204.752109 406.614258,206.07373 C407.7308,207.395352 408.289062,209.298002 408.289062,211.781738 L408.289062,228 L401.350586,228 L401.350586,212.824219 C401.350586,212.072262 401.290772,211.573813 401.171143,211.328857 C401.051513,211.083902 400.809409,210.961426 400.444824,210.961426 C399.761227,210.961426 399.419434,211.542475 399.419434,212.70459 L399.419434,228 L392.480957,228 L392.480957,212.824219 C392.480957,212.083655 392.418295,211.588055 392.292969,211.337402 C392.167643,211.08675 391.922691,210.961426 391.558105,210.961426 C390.874508,210.961426 390.532715,211.582351 390.532715,212.824219 L390.532715,228 L383.594238,228 Z M320.139648,258.933594 L320.139648,252.81543 C321.541023,252.81543 322.241699,252.279953 322.241699,251.208984 C322.241699,250.229162 321.706223,249.739258 320.635254,249.739258 C319.552892,249.739258 319.011719,250.411452 319.011719,251.755859 L319.011719,267 L312.073242,267 L312.073242,252.473633 C312.073242,250.969719 312.224201,249.736414 312.526123,248.773682 C312.828045,247.810949 313.343584,246.913741 314.072754,246.082031 C314.893071,245.159175 315.918451,244.430016 317.148926,243.894531 C318.379401,243.359047 319.649733,243.091309 320.959961,243.091309 C323.329764,243.091309 325.320711,243.888827 326.932861,245.483887 C328.545011,247.078947 329.351074,249.055652 329.351074,251.414062 C329.351074,253.704113 328.627611,255.561191 327.180664,256.985352 C325.859043,258.295579 323.865248,258.950684 321.199219,258.950684 L320.139648,258.933594 Z M341.091797,249.790527 L341.091797,256.626465 C340.647459,256.375813 340.243003,256.250488 339.878418,256.250488 C338.716303,256.250488 338.135254,257.139151 338.135254,258.916504 L338.135254,267 L331.743652,267 L331.743652,257.686035 C331.743652,255.225085 332.415846,253.262621 333.760254,251.798584 C335.104662,250.334547 336.899077,249.602539 339.143555,249.602539 C339.644859,249.602539 340.294267,249.665201 341.091797,249.790527 Z M351.055176,249.602539 C353.470552,249.602539 355.541251,250.471264 357.267334,252.20874 C358.993417,253.946216 359.856445,256.028308 359.856445,258.455078 C359.856445,260.916028 358.982024,263.012361 357.233154,264.744141 C355.484285,266.47592 353.37371,267.341797 350.901367,267.341797 C348.429024,267.341797 346.315601,266.473072 344.561035,264.735596 C342.806469,262.99812 341.929199,260.904635 341.929199,258.455078 C341.929199,255.959948 342.806469,253.860767 344.561035,252.157471 C346.315601,250.454174 348.480293,249.602539 351.055176,249.602539 Z M350.884277,255.908691 C350.20068,255.908691 349.619631,256.156492 349.141113,256.6521 C348.662595,257.147708 348.42334,257.754391 348.42334,258.472168 C348.42334,259.178552 348.665444,259.782387 349.149658,260.283691 C349.633873,260.784996 350.212073,261.035645 350.884277,261.035645 C351.567875,261.035645 352.151772,260.784996 352.635986,260.283691 C353.120201,259.782387 353.362305,259.178552 353.362305,258.472168 C353.362305,257.754391 353.123049,257.147708 352.644531,256.6521 C352.166013,256.156492 351.579268,255.908691 350.884277,255.908691 Z M364.82959,249.961426 L371.221191,249.961426 L371.221191,264.351074 C371.221191,267.358902 370.509122,269.751456 369.084961,271.528809 C367.273428,273.784679 364.778336,274.912598 361.599609,274.912598 C360.63118,274.912598 359.537441,274.707522 358.318359,274.297363 L358.318359,268.264648 C359.389328,268.765953 360.295081,269.016602 361.035645,269.016602 C363.564954,269.016602 364.82959,267.153827 364.82959,263.428223 L364.82959,249.961426 Z M367.837402,242.356445 C368.703292,242.356445 369.452389,242.661211 370.084717,243.270752 C370.717044,243.880293 371.033203,244.600907 371.033203,245.432617 C371.033203,246.321294 370.734134,247.050453 370.135986,247.620117 C369.537839,248.189781 368.771652,248.474609 367.837402,248.474609 C366.903153,248.474609 366.136966,248.189781 365.538818,247.620117 C364.940671,247.050453 364.641602,246.321294 364.641602,245.432617 C364.641602,244.600907 364.957761,243.880293 365.590088,243.270752 C366.222415,242.661211 366.971513,242.356445 367.837402,242.356445 Z M391.711914,259.514648 L382.021973,259.514648 C381.87386,259.024737 381.799805,258.574709 381.799805,258.164551 C381.799805,257.594886 381.902343,257.036624 382.107422,256.489746 L385.354492,256.489746 C385.126626,255.225091 384.414557,254.592773 383.218262,254.592773 C382.420732,254.592773 381.771324,254.931719 381.27002,255.609619 C380.768715,256.28752 380.518066,257.156245 380.518066,258.21582 C380.518066,259.320969 380.76017,260.215329 381.244385,260.898926 C381.728599,261.582523 382.363766,261.924316 383.149902,261.924316 C383.787926,261.924316 384.403155,261.605309 384.995605,260.967285 L388.635742,265.342285 C386.938143,266.6753 385.052582,267.341797 382.979004,267.341797 C380.449694,267.341797 378.324878,266.49301 376.604492,264.79541 C374.884106,263.097811 374.023926,260.995781 374.023926,258.489258 C374.023926,255.994128 374.892651,253.886402 376.630127,252.166016 C378.367603,250.445629 380.500964,249.585449 383.030273,249.585449 C385.502617,249.585449 387.579012,250.425691 389.259521,252.106201 C390.940031,253.786711 391.780273,255.85741 391.780273,258.318359 C391.780273,258.569012 391.757487,258.967771 391.711914,259.514648 Z M404.819824,259.155762 L411.160156,258.916504 C410.977864,261.377454 410.060718,263.399732 408.408691,264.983398 C406.756665,266.567065 404.74578,267.358887 402.375977,267.358887 C399.869454,267.358887 397.753182,266.487313 396.0271,264.744141 C394.301017,263.000968 393.437988,260.864759 393.437988,258.335449 C393.437988,255.931466 394.309562,253.875009 396.052734,252.166016 C397.795907,250.457023 399.886544,249.602539 402.324707,249.602539 C404.455252,249.602539 406.335116,250.274733 407.964355,251.619141 C409.593595,252.963548 410.607583,254.678212 411.006348,256.763184 L404.529297,257.002441 C403.971026,256.273271 403.264653,255.908691 402.410156,255.908691 C401.680986,255.908691 401.082847,256.147947 400.615723,256.626465 C400.148598,257.104983 399.915039,257.708818 399.915039,258.437988 C399.915039,259.178552 400.162839,259.799477 400.658447,260.300781 C401.154055,260.802086 401.772132,261.052734 402.512695,261.052734 C403.595057,261.052734 404.364093,260.420416 404.819824,259.155762 Z M419.636719,243.672363 L419.636719,250.200684 L422.507812,250.200684 L422.507812,256.951172 L419.636719,256.951172 C419.636719,258.306973 419.85034,259.241208 420.277588,259.753906 C420.704836,260.266604 421.488113,260.522949 422.627441,260.522949 L422.627441,267.239258 C422.297036,267.250651 422.052084,267.256348 421.892578,267.256348 C420.445631,267.256348 419.081305,266.920251 417.799561,266.248047 C416.517816,265.575843 415.489587,264.664394 414.714844,263.513672 C413.735021,262.043938 413.245117,260.095715 413.245117,257.668945 L413.245117,243.672363 L419.636719,243.672363 Z" id="AWMProject" fill="#FFD900" fill-rule="nonzero"></path>
    </g>
</svg>